<svg width="128" height="44" viewBox="0 0 128 44" fill="none" xmlns="http://www.w3.org/2000/svg">
<path fill-rule="evenodd" clip-rule="evenodd" d="M42.2302 0V40.266H51.1246V22.2208H53.6587L58.0811 40.266H67.2736L61.7581 20.7792C63.0832 20.1495 64.0935 19.3707 64.7892 18.4428C65.5179 17.4817 66.0148 16.3549 66.2798 15.0625C66.5449 13.77 66.6774 12.2952 66.6774 10.6382C66.6774 7.82121 66.1142 5.65049 64.9879 4.12602C63.8947 2.56841 62.3544 1.49133 60.3668 0.8948C58.3792 0.298267 56.0273 0 53.3109 0H42.2302ZM53.609 17.1006H51.1246V5.96533H54.0066C55.696 5.96533 56.8554 6.44587 57.4848 7.40695C58.1142 8.36803 58.4289 9.71023 58.4289 11.4335C58.4289 12.6266 58.2798 13.654 57.9817 14.5156C57.7167 15.3441 57.2364 15.9904 56.5407 16.4544C55.8451 16.8852 54.8678 17.1006 53.609 17.1006ZM0 43.7033V5.23783H8.50881V37.9572H17.3504V43.7033H0ZM12.7672 35.0282L16.7603 13.9131H22.0845L26.0255 35.0282H21.7192L21.0145 30.5705H17.9087L17.1779 35.0282H12.7672ZM18.3263 27.7812H20.5708L19.4485 19.5438L18.3263 27.7812ZM72.9061 33.0639C71.7201 33.0639 70.687 32.8627 69.8071 32.4604C68.9462 32.058 68.2767 31.4545 67.7984 30.6497C67.3393 29.845 67.1097 28.8391 67.1097 27.632V21.3091C67.1097 20.102 67.3393 19.0961 67.7984 18.2914C68.2767 17.4867 68.9462 16.8831 69.8071 16.4808C70.687 16.0784 71.7201 15.8772 72.9061 15.8772C74.0922 15.8772 75.1156 16.0784 75.9765 16.4808C76.8565 16.8831 77.5356 17.4867 78.0138 18.2914C78.4921 19.0961 78.7312 20.102 78.7312 21.3091V27.632C78.7312 28.8391 78.4921 29.845 78.0138 30.6497C77.5356 31.4545 76.8565 32.058 75.9765 32.4604C75.1156 32.8627 74.0922 33.0639 72.9061 33.0639ZM72.9348 29.96C73.2409 29.96 73.48 29.8833 73.6522 29.73C73.8244 29.5576 73.9391 29.3277 73.9965 29.0403C74.073 28.7337 74.1113 28.3697 74.1113 27.9481V20.993C74.1113 20.5715 74.073 20.217 73.9965 19.9296C73.9391 19.623 73.8244 19.3931 73.6522 19.2398C73.48 19.0674 73.2409 18.9812 72.9348 18.9812C72.6287 18.9812 72.3896 19.0674 72.2174 19.2398C72.0453 19.3931 71.9209 19.623 71.8444 19.9296C71.7679 20.217 71.7296 20.5715 71.7296 20.993V27.9481C71.7296 28.3697 71.7679 28.7337 71.8444 29.0403C71.9209 29.3277 72.0453 29.5576 72.2174 29.73C72.3896 29.8833 72.6287 29.96 72.9348 29.96ZM81.0231 12.6035V37.3196H85.6903V24.5039L90.7541 37.3196H94.4451V12.6035H89.9305V24.5039L84.8667 12.6035H81.0231ZM103.646 39.9385C101.811 39.9385 100.391 39.2918 99.3877 37.9983C98.3841 36.7048 97.8823 34.7933 97.8823 32.2638V21.959C97.8823 20.4068 98.0974 19.0558 98.5275 17.9061C98.9576 16.7275 99.6028 15.8077 100.463 15.1466C101.323 14.4855 102.384 14.1549 103.646 14.1549C104.563 14.1549 105.438 14.3418 106.27 14.7154C107.101 15.0604 107.861 15.5347 108.549 16.1383V4.58308H115.56V39.5074H108.549V37.5671C107.775 38.3145 106.972 38.9038 106.141 39.3349C105.309 39.7373 104.477 39.9385 103.646 39.9385ZM106.7 35.4544C106.929 35.4544 107.201 35.397 107.517 35.282C107.861 35.167 108.205 35.0089 108.549 34.8077V19.0702C108.262 18.9265 107.961 18.7971 107.646 18.6822C107.331 18.5672 107.029 18.5097 106.743 18.5097C106.112 18.5097 105.653 18.7828 105.366 19.3289C105.08 19.8463 104.936 20.4787 104.936 21.226V32.695C104.936 33.2124 104.994 33.6867 105.108 34.1178C105.223 34.5203 105.409 34.8508 105.667 35.1095C105.925 35.3395 106.27 35.4544 106.7 35.4544ZM118.997 14.8952V34.8645H128V31.8814H123.4V25.9153H126.868V22.8583H123.4V17.9029H127.951V14.8952H118.997Z" fill="#1E1112"/>
<circle cx="98.6421" cy="7.63302" r="3.52293" fill="#FEC001"/>
</svg>
