<svg width="128" height="44" viewBox="0 0 128 44" fill="none" xmlns="http://www.w3.org/2000/svg">
<path fill-rule="evenodd" clip-rule="evenodd" d="M42.2302 0V40.266H51.1246V22.2209H53.6588L58.0811 40.266H67.2737L61.7582 20.7793C63.0832 20.1496 64.0936 19.3708 64.7892 18.4428C65.518 17.4818 66.0149 16.355 66.2799 15.0625C66.5449 13.77 66.6774 12.2952 66.6774 10.6382C66.6774 7.82122 66.1143 5.6505 64.988 4.12603C63.8948 2.56841 62.3544 1.49134 60.3669 0.894802C58.3793 0.298268 56.0273 0 53.3109 0H42.2302ZM53.6091 17.1006H51.1246V5.96534H54.0066C55.696 5.96534 56.8555 6.44588 57.4849 7.40696C58.1143 8.36804 58.429 9.71024 58.429 11.4336C58.429 12.6266 58.2799 13.654 57.9818 14.5157C57.7167 15.3442 57.2364 15.9904 56.5408 16.4544C55.8451 16.8852 54.8679 17.1006 53.6091 17.1006ZM0 43.7033V5.23784H8.50883V37.9573H17.3504V43.7033H0ZM12.7674 35.0282L16.7606 13.9131H22.0848L26.0257 35.0282H21.7194L21.0147 30.5706H17.9089L17.1782 35.0282H12.7674ZM18.3265 27.7813H20.571L19.4488 19.5438L18.3265 27.7813ZM72.9064 33.064C71.7204 33.064 70.6873 32.8628 69.8074 32.4604C68.9465 32.0581 68.2769 31.4545 67.7987 30.6498C67.3396 29.8451 67.11 28.8392 67.11 27.6321V21.3092C67.11 20.1021 67.3396 19.0962 67.7987 18.2915C68.2769 17.4867 68.9465 16.8832 69.8074 16.4808C70.6873 16.0785 71.7204 15.8773 72.9064 15.8773C74.0925 15.8773 75.1159 16.0785 75.9768 16.4808C76.8568 16.8832 77.5359 17.4867 78.0141 18.2915C78.4924 19.0962 78.7315 20.1021 78.7315 21.3092V27.6321C78.7315 28.8392 78.4924 29.8451 78.0141 30.6498C77.5359 31.4545 76.8568 32.0581 75.9768 32.4604C75.1159 32.8628 74.0925 33.064 72.9064 33.064ZM72.9351 29.96C73.2412 29.96 73.4803 29.8834 73.6525 29.7301C73.8247 29.5577 73.9394 29.3277 73.9968 29.0403C74.0733 28.7338 74.1116 28.3697 74.1116 27.9482V20.9931C74.1116 20.5715 74.0733 20.2171 73.9968 19.9297C73.9394 19.6231 73.8247 19.3932 73.6525 19.2399C73.4803 19.0675 73.2412 18.9812 72.9351 18.9812C72.629 18.9812 72.3899 19.0675 72.2177 19.2399C72.0456 19.3932 71.9212 19.6231 71.8447 19.9297C71.7682 20.2171 71.7299 20.5715 71.7299 20.9931V27.9482C71.7299 28.3697 71.7682 28.7338 71.8447 29.0403C71.9212 29.3277 72.0456 29.5577 72.2177 29.7301C72.3899 29.8834 72.629 29.96 72.9351 29.96ZM81.0232 12.6035V37.3197H85.6904V24.5039L90.7541 37.3197H94.4452V12.6035H89.9305V24.5039L84.8667 12.6035H81.0232ZM103.646 39.9386C101.811 39.9386 100.391 39.2919 99.3879 37.9984C98.3843 36.7049 97.8825 34.7934 97.8825 32.2639V21.9591C97.8825 20.4069 98.0975 19.0559 98.5276 17.9061C98.9577 16.7276 99.6029 15.8078 100.463 15.1466C101.323 14.4855 102.384 14.155 103.646 14.155C104.564 14.155 105.438 14.3418 106.27 14.7155C107.101 15.0604 107.861 15.5347 108.549 16.1383V4.5831H115.56V39.5075H108.549V37.5672C107.775 38.3146 106.972 38.9038 106.141 39.335C105.309 39.7374 104.478 39.9386 103.646 39.9386ZM106.7 35.4545C106.929 35.4545 107.202 35.397 107.517 35.282C107.861 35.1671 108.205 35.009 108.549 34.8078V19.0702C108.263 18.9265 107.962 18.7972 107.646 18.6822C107.331 18.5672 107.03 18.5097 106.743 18.5097C106.112 18.5097 105.653 18.7828 105.366 19.3289C105.08 19.8463 104.936 20.4787 104.936 21.2261V32.6951C104.936 33.2125 104.994 33.6867 105.108 34.1179C105.223 34.5203 105.409 34.8509 105.668 35.1096C105.926 35.3395 106.27 35.4545 106.7 35.4545ZM118.997 14.8952V34.8645H128V31.8815H123.4V25.9153H126.869V22.8583H123.4V17.9029H127.951V14.8952H118.997Z" fill="#D2C0C0"/>
<ellipse cx="98.6422" cy="7.63305" rx="3.52294" ry="3.52294" fill="#FEC001"/>
</svg>
